<svg xmlns="http://www.w3.org/2000/svg" xmlns:xlink="http://www.w3.org/1999/xlink" viewBox="100 72 975 975"><defs><style>.a{fill:none;}.b{isolation:isolate;}.c{clip-path:url(#a);}.d,.e{fill:#d16b07;}.e{mix-blend-mode:screen;}.e,.f{opacity:0.7;}.f{fill:#bf610d;mix-blend-mode:multiply;}.g{fill:#f2f2f2;}.h{fill:#030303;}.i{fill:#fdfdfd;}</style><clipPath id="a" transform="translate(87.16 57.67)"><circle class="a" cx="500.64" cy="501.85" r="486.85"/></clipPath></defs><g class="b"><g class="c"><path d="M867.35,984.39c-251.81,203.44-620.86,164.23-824.29-87.56S-121.15,276,130.65,72.55,751.48-91.68,954.92,160.13,1119.14,781,867.35,984.39Z" transform="translate(87.16 57.67)"/><path class="d" d="M859.79,966.16C621.86,1158.39,269.39,1116.68,72.54,873S-91,276,146.89,83.78,737.26-66.75,934.12,176.93,1097.7,774,859.79,966.16Z" transform="translate(87.16 57.67)"/><path class="e" d="M922,176.12s-399.53-409-875.61,63.68C46.35,239.8,439-300.38,922,176.12Z" transform="translate(87.16 57.67)"/><path d="M918.79,673.62c-7.06-64.23-35.15-128.24-58.41-187.9-15.62-40-29.55-83.05-34-125.85a115.85,115.85,0,0,1,2-38.08,774.12,774.12,0,0,1,86.17,86.48c68,80.48,137.4,187.59,126.52,299.43-.53,5.27,8.22,5.16,9.91,1.12,16.61-39.83-.93-88.1-9.38-128.85-13-62.53-53.88-112.51-92.63-161.32A833.46,833.46,0,0,0,835.33,301.57c25.33-52.48,95.91-68.87,153.1-55.56.89.22,1.8-1,.72-1.46-49.34-19.65-97.95-14.9-145.2,8.94a71.83,71.83,0,0,0-30.66,29.58c-14.48-11.5-29.45-22.4-44.68-33,19.59-65.67,21.53-126.54,21.55-203.68a1.58,1.58,0,0,0-1.69-1.41l-5.41,0c-1,0-1.34,1.32-.27,1.57,18,4-20,161.1-29.86,192.93a1036.17,1036.17,0,0,0-101.19-59.65C646.22,177,640.57,174.67,635,172c24.7-37.58,32.7-86.09,5-122.81C606.52,4.93,528.86-52.87,469.55-43.4c-1.82.28-1.21,2.51.39,2.55,33.38.94,80.43,35,103.77,54,58,47.31,54,100.67,20.54,141.36-92.16-35.42-189.57-46.24-289.42-37.66-59,5.06-116,19.63-171.9,38.36-43.8,14.65-71.36,44.11-109.58,63-1.74.86,0,2.58,1.45,2.06C64.91,205.92,93.87,179,136.54,166.14c54.53-16.41,111.72-25.73,168.27-31.12,94.22-9,183.87,6.71,270.39,38.55a197.27,197.27,0,0,1-64.42,35.9c-88.26,29.61-184.31,41.72-274.27,66.65C159.33,297.51,90.77,330.28,30.15,382.83c-24,20.81-60.35,52.83-72.65,82.9-10.87,26.6-10.94,55.79-20.45,82.8-1.11,3.23,4.3,3.91,5.56,1.28,6.62-13.63,9.89-27.12,13.87-41.71,12.07-44.12,28-67.76,62.77-100.7C77.11,352.67,140.49,319.8,216.76,297c116.62-34.9,242.57-28.73,356.55-72.72,17-6.56,33-18.24,46.45-32.79,6.06,2.65,12.16,5.09,18.2,7.89A817.68,817.68,0,0,1,745.2,259.61c-35.42,89.74-85.85,173.74-144.49,249.9C471.54,677.26,352.4,852.5,167.86,965.79c-1.86,1.14,0,3.28,1.7,2.41,172.22-89.34,306.91-249.41,418-404.52,56.8-79.3,111.63-153.53,153.51-242.24a516.92,516.92,0,0,0,20.9-50.78c14.69,10.23,29.12,20.82,43.13,32-9.9,32.71-5.88,72.56-.09,102,17,86.54,70.77,162.46,95.15,247.06,33.24,115.36-15.65,264.79-100.55,345-3.25,3.08,2,6.4,4.92,4.1C899.06,925.54,931.61,790,918.79,673.62Z" transform="translate(87.16 57.67)"/><path class="f" d="M934.12,176.93C737.26-66.75,384.8-108.44,146.89,83.78S-124.33,629.35,72.54,873s549.32,285.37,787.25,93.14S1131,420.58,934.12,176.93ZM1002,308.6c32.58,53,66.86,194.93,38.37,195.91s-30.76-39.47-85-105.18S840.43,299.27,868.79,279.62C925.12,240.58,968.57,254.22,1002,308.6ZM810.44,82.33c18.2-8.59,97,66.67,118.87,105.21s-31.7-4.53-79.22,41.33-70,15.1-59.25-17.25S790.22,91.89,810.44,82.33ZM766.18,47c17.16,13.34,9.53,81.12-10.82,134.82s-83.36,1.07-83.73-58.44c-.29-49.71-4.47-85.28-48.93-112S680.72-19.45,766.18,47ZM319.84,1.17c88.39-29.16,172.42-36,227.36,11s48.26,121.89-23.53,95.22-256.73-22.11-357.6,18S216.25,35.36,319.84,1.17ZM17.37,370.85c-68.23,66.79-40.62-140.57,190.21-209.56C340.7,121.5,492.91,146.09,519.3,170S392.93,221.26,306,237.46,85.61,304.08,17.37,370.85ZM44,718.45C-64.9,428.87,198.38,324.52,318.83,296.63s167.16,1,280.26-67.25c49.3-29.73,130.54,31.69,98.41,90.06S528,584.32,436.21,692.84,153,1008,44,718.45Zm612.59,324.43c-218.3,64.76-407-82.41-343.83-134.2S643.54,554.07,712.68,419.29c45.46-88.68,74-107.19,69.32-56s10.09,109.24,60.34,225.17S874.92,978.12,656.63,1042.88ZM921.15,856.26c47.58-98.4-1.51-297.13-42.73-392.52S854.87,351.82,909.24,417c63.28,75.84,133.62,212.72,121.46,281.6C1012.82,800,873.55,954.64,921.15,856.26Z" transform="translate(87.16 57.67)"/><path class="g" d="M281.57,1423.43c-9.42,0-20.87-2.33-36-7.32-22.2-7.31-31.81-24.31-26.35-46.66,1.12-4.59,2.3-9.18,3.48-13.77,5.68-22.13,11-43,10-64.25a23.69,23.69,0,0,1,4.37-15.52c11.78-16,10.13-34.77,8.21-56.51-.9-10.23-1.83-20.81-1.37-31.67.81-19.35-1.14-39.79-3-59.56l-.06-.67c-1.83-19.24,3.05-36,14.93-51.38,4.94-6.56,5.84-34.34,1.34-41.28-7-9.69-8.7-19.71-9.39-26.4q-1-9.45-2-18.89c-1.71-16-3.49-32.61-5-49-.9-9.83-2.44-21.33-7.06-32.06-13.39-31.11-11.11-57.24,6.79-77.69,3.93-4.48,2.19-10.91-2.63-21.94l-.42-1c-3.89-8.93-5.65-17.77-7.21-25.57s-2.91-14.6-6-20.47c-12.77-24.21-26.47-49.93-41.2-74.82-11.38-19.22-24.32-41.74-33.9-65.82-14.39-36.13-2.51-71.17,31-95.74l-.76-.64c-16.47-13.53-23.11-32.41-19.22-54.6,5.87-33.42,39.34-60.6,74.63-60.6a62.25,62.25,0,0,1,20.28,3.3c12.12-27.62,16-47,4-67.53-.68-1.17-1.33-2.35-2-3.53-.41-.75-.92-1.7-1.31-2.37l-.52-.23c-5-2.2-15.31-6.78-17.68-18.91a22.73,22.73,0,0,1,1.07-12.48c-.07-.1-.14-.19-.2-.29-19.34-27.39-22.05-58.06-7.86-88.71,13.49-29.13,39.17-46,70.47-46.38h1.17c32.35,0,59.79,14.65,75.3,40.18,15,24.75,15.81,55.51,2.18,82.5,1.58,1.54,3.13,3.09,4.67,4.64,7.05,7.07,12.62,12.66,20.21,15.15,15.5,5.07,26.28,16.65,34.94,26q1.57,1.69,3.13,3.35,9.53,10,19,20.16c13.55,14.46,27.57,29.41,41.65,43.66s16.14,32.77,5.66,50.8c-2.88,4.95-5.71,10-8.54,15-20.15,35.74-42.88,76-88.4,96.3-.21,5.08-.73,10-1.25,14.79-1.53,14.27-2.21,23.43,2.95,31.74,6.82,11,7.47,22.85,8,32.4.09,1.47.17,2.94.27,4.38,1.3,17.78,3,20.79,9,23.32,13.5,5.68,19.74,20.06,15.52,35.79-4.34,16.18.47,31.95,6.05,50.2a259.91,259.91,0,0,1,7.37,27.91c17.91,6.94,22.22,22.63,24.9,32.42.52,1.87,1,3.8,1.69,5.74,4.31,12.85,11.48,23.55,19.68,29.35,8.49,6,20.32,16.12,25,34.45,2.77,10.8,7.54,14,12.29,15.8,10.84,4.17,17.36,11.75,22.58,17.85,3.13,3.63,5.83,6.77,8.14,7.6a21,21,0,0,1,12.34,11.72c4,9.67-.25,18.52-2.78,23.81-.28.6-.56,1.15-.76,1.64-1.32,3.22-1.86,5.6,1.85,11.55,9.21,14.78,17.49,30.14,25.49,45l4.14,7.67c4.35,8,6.07,15.67,5.13,22.75-1.6,12-1.89,24.35-2.19,37.46-.62,27-1.27,54.84-13.66,81.9-15.83,34.57-5.12,62.54,20.19,102.06,4.15,6.46,9.71,12.66,15.6,19.22,2.21,2.46,4.42,4.93,6.58,7.42,12.34,14.26,14.54,31.19,6.18,47.67-7.1,14-20,21.71-36.25,21.71-1.64,0-3.32-.07-5-.22-29.63-2.57-52-13-68.44-31.9-12.88-14.82-26.57-22.94-43.08-25.56-11.27-1.78-22.08-6.87-33.05-15.54-15.9-12.56-19.84-25.79-20.34-34.67-.49-8.7,1.81-21.93,15.55-35.58,5.38-5.35,8-9.23,9.48-14.33,5.43-18.07,19-29.7,35.73-31a273.18,273.18,0,0,1,5.41-46.29h0c-.05,0-.13-.52-.23-.76-8.84-17.43-10.4-36.94-4.7-59.49a11.9,11.9,0,0,0,.26-1.35,28.92,28.92,0,0,0-4.24-4.81c-7.86-7.78-17.74-13.4-28.21-19.35-6.32-3.6-12.86-7.32-19.31-11.7-24.3-16.53-44.94-35.33-61.57-56.05a62.19,62.19,0,0,0,2.06,15.68c1.19,4.53,4.8,18.33-2.81,30.47-4.86,7.76-13,12.82-24.14,15a7.93,7.93,0,0,0-2.61.85,11.91,11.91,0,0,0-.87,3.62c-1.87,15-7.18,29.32-16.23,43.94-2.86,4.62-2.85,10.79-2.6,20.47.06,2.62.13,5.23.11,7.82a100.82,100.82,0,0,1-9.75,43.94c-12.25,26-11.51,55.11-10.72,86l.14,5.82c.16,6.65.48,13.31.8,20,1.37,28.72,2.78,58.41-7.84,88.8a44.7,44.7,0,0,0,.3,5.36c.21,2.32.4,4.64.45,6.9l.06,1.73c.21,4.87.55,13-4.25,21.37C311.36,1413.18,301.33,1423.43,281.57,1423.43Zm59-1057.38c-1.08,30.2-4,61.88-9.07,99.73a140.79,140.79,0,0,1-3.94,18c-.21.78-.41,1.53-.6,2.27,13.85-9.38,29.84-11.89,41-13.64,5.34-.84,6.14-2.09,6.67-2.93a116.41,116.41,0,0,1,32-33q-1.5-2.25-3-4.51c-4.86-7.35-9.46-14.3-14.63-20.2-3.38-3.85-6.69-7.8-10-11.76-11.72-14-22.8-27.21-36.82-35.57l-1.44-.83C340.61,364.32,340.57,365.15,340.53,366.05Z" transform="translate(87.16 57.67)"/><path class="g" d="M736.6,1363.31a28,28,0,0,1-20.81-9.3c-11.57-12.38-12.74-30.67-3.12-48.92,3.39-6.43,3.63-9.59,2.89-12.87-4.88-21.62-2.25-41.18,1.32-59.09,2-9.83-2.34-25.58-11.23-41.1-25.08-43.78-39.2-89.66-42-136.35-2.21-37.14-12.67-72.24-32.93-110.45-8-15-9.78-32.11-11.4-47.21-.62-5.8-1.21-11.28-2.08-16.43-3.94-23.23-9.4-50.46-20-76.29-4.51-11-6.42-21.18-5.66-30.18,1-12.14-.13-15.61-3.83-19.29-11.95-11.87-9.14-27-7.64-35.17.17-.88.33-1.75.47-2.61,2.59-15.94.66-26.42-6.86-37.38-20.26-29.5-26-62.61-31.55-94.63-1.19-6.9-2.38-13.8-3.73-20.63-6.75-34.27-9.2-68.64-10.83-100.68-.79-15.34-4.58-24.34-12.67-30.1-27.09-19.29-40.78-46.3-53.54-74.62-11.6-25.76-23-42.71-36.95-55-26.87-23.64-44.35-52.5-61.26-80.41-2.75-4.53-5.49-9.06-8.28-13.57-3.88-6.28-6.22-7.28-8.66-7.87-12.95-3.1-23.57-9.4-31.56-18.72-.47-.54-1.34-1.56-5.15-1.88l-1.43-.12c-7.28-.56-20.81-1.6-31.37-14.91l2.38-6.66L276,159.34l-10.14-21.7a25.1,25.1,0,0,1,3.27-7.61,26.43,26.43,0,0,1,.33-8.37l15.65-15.14a60.63,60.63,0,0,1,9.39-.74c18.56,0,32.8,8.32,47,17.59a42.36,42.36,0,0,1,6.64,5.58l.25.25c38.19,12.78,63.62,39.25,88.23,64.87,13.46,14,26.17,27.23,40.59,37.91,21,15.53,33.75,37.11,46.13,58,5.34,9,10.39,17.52,16,25.34a100.1,100.1,0,0,0,27.47,26.56c4.34,2.87,9,5.55,14,8.38,7.47,4.26,15.44,8.81,23,14.58,4.08-25.55,15.53-47.1,25.93-64,8.14-13.24,24.65-20.83,45.3-20.83a81.9,81.9,0,0,1,36.37,8.34c27.24,13.81,42.11,42.19,37,70.64-2.76,15.34-8.19,28-16.5,38.35A37.68,37.68,0,0,1,752.23,416c32.35,4.66,56.47,24.62,73.64,60.9,4.74,10,10.09,16.25,17.32,20.24,12,6.61,20.75,15.8,28,23.9,4.17,4.66,9.89,11,14.5,12.63,31.43,10.87,52.42,32.4,72.72,53.23l4.26,4.35c4.06,4.15,8.59,8.12,13.38,12.31,5.07,4.45,10.32,9,15.37,14.18,9.5,9.68,16.73,13.63,24.94,13.63a32.89,32.89,0,0,0,7.16-.86,49,49,0,0,1,10.53-1.17c16.1,0,31,8.08,43.26,23.39,6.51,6.17,9.2,13.11,8,20.61-.67,4.15-3.25,11.68-13,16.7l-.16.13c-2.42,2-8.08,6.77-16.47,6.77a20.73,20.73,0,0,1-2.69-.17,36,36,0,0,1-5.88,6.35l-29.57-6.4c-.22-.47-.44-.94-.65-1.42l-1,1a70.28,70.28,0,0,1-12.81,1.21c-17.45,0-32.74-7.13-44.19-20.62-6.28-7.41-14.41-12.59-27.19-17.34-37.51-13.94-63.72-29.65-85-50.91-10.34-10.34-23.75-18.11-38-26.32l-4.26-2.47a166.51,166.51,0,0,1-32.67-25.41,185.8,185.8,0,0,0-1,34c.79,10.4,3.15,11.83,4.87,12.88,9.94,6,13.5,13.93,14.73,19.49,1.89,8.51-.15,17.29-6,26.12-.53.78-1,1.49-1.36,2.12.78.31,1.68.65,2.73,1,5,1.75,15.51,5.38,20.28,16.22a25.65,25.65,0,0,1,1.81,14.33c17.54,12.86,27.13,30.61,35.7,46.46,2,3.6,3.88,7.19,5.91,10.7,12.55,21.72,24.77,44,36.58,65.54q6.13,11.19,12.28,22.36c.23.41.49.83.75,1.26,2.32,3.84,6.62,11,5.18,20-5,31.11,11.79,56.25,30.9,81.4a221.47,221.47,0,0,1,36.12,69.82c6.56,20.92,15.89,41,25.76,62.18,3.61,7.77,7.33,15.76,10.9,23.8,21.17,14.44,31.16,35.7,40.05,54.63,7,14.82,13.54,28.82,24.6,37.74,21.24,17.14,28.38,37.86,19.09,55.45-3.13,5.93-10.89,15.87-27.71,15.87a76.27,76.27,0,0,1-14.47-1.77,56.69,56.69,0,0,0-6.78-1c-32.78-.8-49.13-18.33-57.08-32.89-.47-.87-1.45-2.67-8.13-4.16-14.31-3.21-25.89-8.52-35.41-16.24-16-13-19.14-32.23-8.1-49.12,6.81-10.42,5.52-37-2.12-43.77-14.37-12.71-23.8-27.76-32.92-42.32-8.32-13.26-16.17-25.8-26.92-34.81a27,27,0,0,1-9-15.28c-5-25.78-22.17-45.16-40.37-65.68-8.86-10-18-20.27-26.06-31.66a35.55,35.55,0,0,1-6,.53A27.79,27.79,0,0,1,770.87,902c-1.92,14.18-9.78,21.47-18.51,25.12,2.16,19.92,3.08,39.88,4,59.25,1.53,33.24,3,64.62,10.1,95.43,5.82,25.11,9.25,51.75,10.82,83.81,1.38,28.37,12.19,49.93,32.11,64.06,13.65,9.67,17.61,23.94,10.88,39.15-3.3,7.45-8.19,17.1-16.78,25.63-.69.7-1.22,1.28-1.62,1.76,10.14,33.49-18.73,47.71-28.45,52.49-1.16.57-2.28,1.22-3.4,1.86a64.23,64.23,0,0,1-10.8,5.22c-.58.2-2.2,1.06-3.28,1.63C751.2,1359.9,744.75,1363.31,736.6,1363.31Z" transform="translate(87.16 57.67)"/><path class="h" d="M211.36,529c-7.72-7.29-13.55-13.44-20.05-18.78-11.86-9.75-15.05-22.48-12.56-36.66,5.45-31.08,44.38-53.83,73-41.49,11,4.74,14.53,1.93,18.68-7.23,13.19-29.09,23.05-58,4.9-89-2.9-5-4.78-10.26-10.2-12.86-6.56-3.13-14-4.65-4.75-14.2,4.36-4.52-3.89-8.38-6.52-12.11-15.7-22.23-17.11-46.09-6.14-69.79,10.16-21.94,28.94-35.11,53.45-35.38,55.51-.61,84.24,51.44,61.1,95.94-4.12,7.92-5.23,12.56,2.29,19.62,10.54,9.91,19.05,21.06,34,26,12.33,4,21.2,14.83,30.2,24.33,20.27,21.39,40.19,43.13,60.9,64.1,9,9.15,8,18.95,2.75,27.91C468.39,490.73,448.25,535.88,399,555c-3.44,1.34-6.28,2.54-6,6.79,1.21,21.62-8.55,43.79,4.57,64.92,5.08,8.18,4.75,18.55,5.45,28.15,1.19,16.15,2.6,31.85,20.57,39.42,5.61,2.36,5.9,8.38,4.56,13.38-8.67,32.32,9.34,60.5,13.8,90.75.58,3.93,2.74,7.81,7.11,8.79,15.31,3.43,15.32,15.43,19.44,27.69,4.83,14.39,13.54,29.47,26.7,38.79,9,6.38,15,13.38,17.59,23.67,3.42,13.38,10.41,23.64,23.86,28.82,13,5,17.36,20.67,31.14,25.6,3.58,1.28-.76,8.2-2.36,12.07-4.28,10.4-2.68,19.23,3.29,28.81,10.44,16.75,19.65,34.28,29.06,51.66,1.81,3.34,3.47,7.64,3,11.2-5.08,38,2.07,78.24-14.29,114-21.19,46.26-2.17,83.3,21.46,120.19,6.68,10.42,15.65,19.39,23.8,28.82,7.11,8.21,8.57,16.92,3.62,26.68-4.8,9.45-12.9,12-22.73,11.16-21.61-1.87-41.21-8.7-55.76-25.44-14.68-16.89-32.05-28.3-54.43-31.85-9.1-1.44-17.07-6-24.26-11.68-16.25-12.85-17.68-27.51-3.18-41.9,6.61-6.57,11.52-13.12,14.29-22.34,3.56-11.87,12.85-19.83,25.74-17,10.15,2.2,10.3-2.73,10.46-9.35.45-17.59,1.59-35.06,5.31-52.36a21.51,21.51,0,0,0-1.79-13.18c-7.68-15.14-7.29-30.64-3.3-46.4,2.64-10.46-1-16.33-9-24.3-14.88-14.73-33.66-22-50.2-33.25C439.6,1009,416,986.94,397.71,959.62c-2.67-4-5.38-10-11.39-8.49-4.66,1.13-5.1,6.86-6.66,11-5.62,14.88-5.59,30.63-1.76,45.24,3.48,13.3-.08,19.66-12.27,22.07-11.8,2.33-17.22,9.38-18.64,20.74-1.64,13.13-6.59,25.08-13.53,36.3-7.35,11.87-5.26,25.31-5.34,38.17a82.52,82.52,0,0,1-7.94,35.95c-15,31.86-13.18,66.59-12.38,100.34.82,34.46,5.78,68.71-6.12,102.4-1.95,5.53-.31,12.35-.17,18.57.1,4.51.77,9-1.68,13.24-6.71,11.69-20.78,12-48.34,2.95-12.89-4.24-17-11.21-13.85-24.13,6.7-27.46,15.43-54.63,14-83.48a5.53,5.53,0,0,1,.67-3.28c22.67-30.8,9.16-65.64,10.55-98.67.87-20.88-1.17-42-3.16-62.83-1.38-14.52,2.24-26.6,11-38,10.12-13.06,11.17-50.85,1.79-63.92-3.89-5.42-5.32-11.12-6-17.36-2.36-22.54-4.91-45.07-7-67.64-1.18-13-3.23-25.53-8.52-37.83-8.38-19.47-11.81-40,3.64-57.69,13-14.83,4.38-33.07.07-43-6.7-15.4-5.73-32-13.83-47.32-13.44-25.48-27-50.81-41.66-75.64-12.06-20.37-23.88-41.24-32.6-63.16C153.06,580,170,548.47,211.36,529Zm218.41-91.23c-1.17-2-2.44-4.52-4-6.81-7.4-10.66-14-22-22.55-31.71C387.24,381,373,360.68,351.8,348.08c-22-13.11-29.29-8.72-30.23,17.29-1.18,32.82-4.52,65.31-8.91,97.87-2.17,16.09-10.71,31.57-6.15,48.63,1.07,4,1.58,7.87,5.9,9.33,4.8,1.62,9.47.5,11.75-4.05,9.71-19.36,28.13-23.13,46.69-26,8.45-1.33,15.24-4.42,19.74-11.49,7.74-12.19,17.91-21.8,29.84-29.71C424.74,447,428.59,443.78,429.77,437.72Z" transform="translate(87.16 57.67)"/><path class="h" d="M294.75,136.78c-.59-4.63-8-4.89-6.7-11.51,16.64-2.65,29.91,5.42,43,14,3.3,2.16,5.78,6.2,9.29,7.31,54.76,17.3,82.34,68.69,125.52,100.68,26.2,19.41,38.93,52.39,57.93,79.08a119.94,119.94,0,0,0,32.45,31.37c17.73,11.76,38.69,19.34,51.3,38.08,2.52,3.73,6.56,4.58,10.58,3.24,5.3-1.77,3.33-6.36,3.15-10.11-1.35-29,10.08-54.58,24.56-78.13,8.69-14.12,38.07-15.06,56.93-5.5,19.75,10,30.59,29.83,26.89,50.35-2.44,13.6-7.65,26-18.13,35.74-4.6,4.26-8.77,9-9.33,15.68-.41,5-.46,8.71,7.08,7.3,13.29-2.48,24,1.27,28.24,15.81,1.24,4.28,5.1,3.88,8.33,4.2,32.07,3.13,50.19,23.82,62.91,50.68,5.78,12.21,13.4,22.18,25.32,28.74,9.08,5,16.21,12.34,23,20,6.5,7.25,13.49,14.81,22.43,17.9,29.21,10.09,49,31.86,69.62,52.92,9.12,9.3,19.64,17.22,28.77,26.51,13.84,14.1,28.53,22.73,49.77,18,14.38-3.21,26.36,4.69,35.29,16.11,1.67,2.14,7.22,5,.13,8.3-4.08,1.9-7,8.52-11.77,1-3.66-5.75-7.41-11.57-16.28-9.63-.43,7.78,9.87,15.21-.25,23.89-6.3-13.55-9.29-31.45-30.76-27.48-.37,7.28,9.9,8,8.44,16.43-15.37,2.84-28.82-.95-39.08-13-9.54-11.24-21.5-17.81-35-22.85-28.83-10.72-55.93-24.29-78.18-46.54-13.26-13.26-29.92-22.37-46.08-31.78-18-10.45-32.27-24.81-45.3-40.66-2.16-2.61-4-6-7.89-5.41-4.44.72-3.83,5.06-4.29,8.17-3.11,21.32-6.32,42.71-4.69,64.32.82,10.77,3.37,21.25,13.94,27.67,8.07,4.9,7.63,11.55,2.76,18.84-11.25,16.85-8.78,24.78,10.93,31.61,7.84,2.72,12,5.37,8.2,14.22-1.75,4.06,0,8.12,3.76,10.32,21.3,12.62,30,34.83,41.53,54.73,16.71,28.92,32.54,58.33,48.68,87.57,1.6,2.91,4.24,6.35,3.8,9.13-6.12,38.36,13.26,67.86,34.52,95.85a203.7,203.7,0,0,1,33.14,64c9.9,31.6,25.79,61.33,39.11,91.86.23.52.35,1.26.76,1.49,36.66,21.07,36.22,68.78,67.63,94.11,9,7.28,20.42,20.07,14.22,31.81-5.66,10.72-20.87,3.21-31.71,3-17.26-.43-32-6.76-40.89-23-4.4-8.08-12-11.67-20.63-13.59-10.08-2.26-19.58-5.94-27.62-12.46s-10.15-14.84-4.17-24c11.24-17.2,10.18-54.56-5.43-68.36-25.13-22.23-34.63-56-60.22-77.46a8.24,8.24,0,0,1-2.6-4.34c-8.85-45.9-47.46-72-71.6-107.63-3.19-4.73-7-7.81-12.69-5.88-11.87,4-15.29-1.56-20.29-11.94-6.66-13.83-18.1-25.35-28.91-37.53,3.49,17.08,2.58,34.21,4,51.17.86,10.09.05,17.81-12,20-5.41,1-8.31,4.36-7.48,11,6.82,54.55,2.83,110.23,15.29,164.06,6.18,26.72,9,53.17,10.34,80.46,1.53,31.22,13.09,59.45,40.09,78.61,6.18,4.38,7.54,9.13,4.51,16-3.25,7.34-7.06,14.16-12.8,19.86-5,5-9.74,11.61-7.3,18.11,6.94,18.55-4.22,25.9-17.78,32.57-4.07,2-7.85,4.72-12.08,6.19-7.59,2.66-15.92,11.06-23.27,3.19-7.13-7.62-4.73-18.52-.2-27.11s6.74-16.44,4.61-25.9c-3.88-17.19-2.14-33.35,1.42-51.2,3.3-16.58-3.67-37.3-13.37-54.24-22.75-39.72-36.8-82.64-39.5-128-2.54-42.64-15.24-80.73-35.11-118.21-8.83-16.67-8.23-38.42-11.54-57.93-4.66-27.4-10.53-54.41-21.12-80.3-2.73-6.67-4.9-14.41-4.31-21.41,1.08-12.94.76-24.27-9.37-34.33-5.6-5.56-3-14-1.81-21.27,3-18.3,1.51-34.48-10-51.17-22.06-32.12-25-71.1-32.3-108.19-6.36-32.28-8.83-65.14-10.5-98-.92-18-5.68-34-20.61-44.6-23.74-16.9-35.95-41.87-47.25-66.95-10.43-23.16-23.13-45.1-41.72-61.44-28.83-25.37-46.39-58.09-65.92-89.7-5.12-8.28-11-14.09-20.38-16.35-8.46-2-15.77-5.85-21.59-12.63-4.59-5.35-10.71-7.82-17.94-8.43-6.52-.56-13.66-.5-19.54-7.91l14.11-3.07-21.54-10.43c1.73-6.92,9.11-.31,11-5.8-.09.82-.17,1.63-.25,2.44l2.22-.45Z" transform="translate(87.16 57.67)"/><path class="i" d="M294.75,136.78l2.41,1.67-2.22.45c.08-.81.16-1.62.25-2.44Z" transform="translate(87.16 57.67)"/></g></g></svg>